<svg width="1512" height="608" viewBox="0 0 1512 608" fill="none" xmlns="http://www.w3.org/2000/svg">
<g opacity="0.1">
<path d="M413.991 0.00512695H0V95.4233H413.991V0.00512695Z" fill="#22253A"/>
<path d="M1305.06 511.734C1253.52 511.734 1194.41 484.709 1194.41 407.857V358.874C1194.41 282.04 1253.52 254.997 1304.22 254.997C1369.26 254.997 1415.71 297.215 1415.71 358.874V407.854C1415.71 484.706 1356.59 511.731 1305.06 511.731M317.67 361.405H96.4066V358.05C96.4066 281.225 155.523 254.164 206.214 254.164C271.25 254.164 317.669 296.373 317.669 358.05L317.67 361.405ZM1415.72 0.000976562V187.456C1382.77 168.865 1343.9 158.76 1304.22 158.76C1278.9 158.641 1253.76 162.92 1229.9 171.404C1205.41 179.855 1183.43 191.686 1164.01 208.561C1120.95 244.867 1098.97 296.377 1098.14 355.505V361.517H906.173C881.655 344.886 850.781 336.932 820.259 336.932H726.502C694.389 336.932 674.969 317.518 673.278 310.739V294.695C673.278 271.901 718.039 254.999 756.082 254.999C794.08 254.999 837.982 276.095 837.982 294.695H933.448C933.448 271.07 927.5 249.947 914.87 231.355C904.69 215.33 889.528 200.967 869.25 190.013C838.845 170.58 795.758 158.759 756.078 158.759C715.522 158.759 672.451 170.58 641.216 190.013C623.028 200.107 607.409 214.254 595.57 231.356C583.395 250.235 576.949 272.234 577.01 294.696V310.74C577.01 351.268 595.57 384.213 629.374 406.176C655.528 423.059 691.873 432.351 726.499 432.351H820.256C852.342 432.351 859.086 453.464 859.086 458.508C859.086 494.842 829.559 512.557 771.255 512.557H760.274C734.97 512.557 723.117 512.557 695.254 504.123C652.166 489.771 652.166 465.241 652.166 456.79C652.166 452.207 652.176 442.925 659.01 433.1C644.048 428.726 630.062 422.643 618.183 414.97C603.084 405.163 591.042 393.167 582.327 379.287C578.766 373.629 575.757 367.642 573.341 361.408H413.988V358.054C413.988 296.377 390.356 244.868 348.958 208.561C329.472 191.573 306.78 178.659 282.22 170.581C258.569 162.139 232.379 157.918 206.214 157.918C180.886 157.795 155.73 162.08 131.872 170.581C107.372 178.146 85.4127 191.685 65.9933 207.711C23.7459 244.036 0.963692 295.564 0.123476 354.638V415.457C0.0704693 442.29 4.92958 468.907 14.4607 493.991C16.9318 499.763 19.7209 505.394 22.8152 510.857C32.421 527.914 45.0485 543.083 60.0816 555.624C99.123 588.859 152.079 606.556 218.112 607.125C219.215 607.134 220.319 607.151 221.43 607.151V607.125H413.989V510.861H218.628C187.755 510.618 161.689 506.35 142.006 495.686C124.278 487.252 111.621 474.581 103.167 456.83H555.881C555.89 515.081 585.452 560.707 642.039 586.033C691.871 607.154 745.046 608.005 755.228 608.005C784.781 608.005 827.858 604.625 867.569 587.714C924.977 564.079 955.408 520.18 955.408 458.512C955.408 457.951 955.389 457.391 955.389 456.831H1103.24C1112.73 498.353 1134.4 533.656 1167.39 560.698C1204.54 591.095 1252.67 608.003 1305.06 608.003C1343.79 608.002 1381.88 598.115 1415.72 579.279V607.136H1512.01V0.000976562H1415.72Z" fill="#22253A"/>
</g>
</svg>
